<?xml version="1.0" standalone="no"?>
<!DOCTYPE svg PUBLIC "-//W3C//DTD SVG 20010904//EN"
 "http://www.w3.org/TR/2001/REC-SVG-20010904/DTD/svg10.dtd">
<svg version="1.0" xmlns="http://www.w3.org/2000/svg"
 width="1974.000000pt" height="1824.000000pt" viewBox="0 0 1974.000000 1824.000000"
 preserveAspectRatio="xMidYMid meet">

<g transform="translate(0.000000,1824.000000) scale(0.100000,-0.100000)"
fill="#5D64F6" stroke="none">
<path d="M9900 17470 l0 -760 -320 -2 -321 -3 650 -843 c357 -464 652 -843
656 -843 3 0 298 380 655 843 l649 843 -319 3 -320 2 0 760 0 760 -665 0 -665
0 0 -760z"/>
<path d="M11612 18218 c-30 -30 -13 -61 85 -160 l97 -98 -97 -98 c-106 -108
-119 -137 -73 -167 22 -15 27 -15 53 -1 15 8 66 53 113 100 l85 86 96 -96 c76
-76 103 -96 125 -96 28 0 54 24 54 52 0 8 -45 60 -100 115 l-100 99 100 102
c55 55 100 109 100 118 0 35 -20 56 -52 56 -26 0 -47 -16 -130 -97 l-98 -97
-98 97 c-99 98 -130 115 -160 85z"/>
<path d="M7685 18124 c-38 -8 -98 -28 -133 -44 -57 -27 -67 -28 -120 -20 -203
34 -442 -20 -627 -140 -82 -54 -208 -169 -249 -228 -17 -26 -54 -54 -109 -84
-113 -64 -234 -156 -305 -233 l-59 -65 -57 0 c-86 0 -191 -27 -286 -73 -153
-74 -287 -233 -334 -397 l-16 -56 -68 -17 c-128 -34 -312 -142 -387 -229 -86
-100 -129 -226 -128 -378 0 -113 17 -192 59 -287 l24 -56 -19 -53 c-11 -29
-26 -91 -33 -138 -20 -142 2 -233 96 -406 7 -14 27 -54 44 -90 16 -36 48 -86
72 -112 l41 -48 -79 -158 c-150 -294 -233 -533 -352 -1007 -210 -833 -453
-1995 -605 -2892 l-6 -31 108 -6 c60 -4 137 -9 172 -12 l63 -6 -6 -56 c-21
-198 -38 -586 -61 -1332 -46 -1531 -125 -2249 -322 -2930 -110 -384 -256 -672
-1198 -2370 -111 -201 -219 -396 -240 -435 -49 -90 -644 -1152 -859 -1534 -91
-162 -165 -295 -163 -296 1 -1 697 -421 1546 -933 l1544 -931 33 42 c108 136
161 344 130 515 -21 118 -66 204 -195 376 -62 83 -125 174 -139 203 -32 66
-28 66 -199 -17 -68 -33 -127 -60 -132 -60 -17 0 -33 29 -26 49 6 20 188 116
266 140 l36 12 -13 57 c-8 31 -14 87 -14 125 l0 67 -37 -5 c-21 -3 -141 -17
-267 -30 -233 -25 -256 -24 -256 11 0 30 50 42 300 69 140 15 258 29 261 31 3
2 9 28 13 58 18 154 128 455 277 756 114 232 212 403 551 970 875 1458 1294
2336 1553 3252 10 35 21 55 28 53 19 -7 358 -54 411 -57 57 -3 49 -19 91 169
84 371 124 942 106 1493 -5 146 -7 267 -5 269 2 2 65 -55 141 -126 353 -333
701 -625 942 -794 l114 -79 22 37 c12 21 91 158 175 306 85 147 158 267 162
267 5 0 23 -10 41 -21 l32 -21 0 -377 c0 -220 5 -442 13 -536 59 -728 88
-1118 97 -1315 16 -379 27 -668 40 -1135 9 -286 20 -662 25 -835 6 -173 10
-354 10 -402 l0 -88 155 0 155 0 0 -1725 0 -1725 25 -10 c32 -12 54 -3 66 27
5 15 9 691 9 1679 l0 1654 1669 0 c1411 0 1670 2 1680 14 9 10 11 439 11 1685
l0 1671 1135 0 c1122 0 1135 0 1155 20 24 24 25 43 4 64 -14 14 -136 16 -1200
16 l-1184 0 -2 -1682 -3 -1683 -27 -3 -28 -3 0 114 c0 179 -36 294 -133 422
-80 106 -174 166 -395 251 -64 25 -150 63 -190 85 -61 34 -76 38 -89 28 -8 -7
-46 -61 -83 -119 -89 -137 -95 -143 -120 -130 -11 6 -20 19 -20 29 0 23 84
163 139 232 l41 52 -43 46 c-23 25 -56 67 -72 93 -17 27 -34 48 -38 48 -5 0
-103 -72 -219 -160 -177 -134 -213 -158 -229 -149 -27 14 -24 41 9 71 15 13
109 87 210 163 101 76 185 142 188 146 2 5 -13 61 -35 126 -112 332 -153 724
-155 1473 -1 492 2 554 59 1290 59 762 64 1007 29 1324 -60 537 -278 923 -704
1245 -156 117 -301 203 -548 324 -114 55 -268 135 -342 178 -74 42 -174 96
-222 120 -49 24 -88 46 -88 49 0 3 55 22 123 43 291 92 657 242 1219 501 175
80 384 174 465 207 266 110 313 142 511 341 325 328 477 573 498 808 18 186
-79 386 -256 527 l-59 48 6 140 c7 165 -6 257 -45 330 -33 61 -81 95 -135 95
-27 0 -38 4 -34 13 71 188 507 1413 507 1425 0 9 -9 31 -20 49 -42 70 -148 65
-182 -9 -9 -18 -210 -575 -448 -1238 -238 -663 -437 -1211 -443 -1218 -7 -9
-117 -12 -511 -10 l-501 3 3 25 c2 14 8 26 12 28 30 11 77 52 94 82 28 47 27
161 -2 245 -27 80 -152 353 -194 424 -43 73 -149 179 -218 218 -148 84 -372
127 -665 127 -169 1 -218 -3 -314 -22 -215 -43 -439 -121 -764 -264 -87 -39
-161 -68 -163 -65 -3 3 1 47 10 99 72 431 56 832 -45 1141 -116 357 -355 643
-673 807 -55 29 -103 55 -105 56 -2 2 10 35 27 72 18 38 32 73 32 78 0 5 36
17 80 27 240 54 444 237 543 487 14 36 35 112 47 170 20 94 21 126 17 315 -6
239 -22 349 -73 503 l-34 103 63 63 c85 84 121 156 125 257 6 116 -32 175
-151 235 -103 53 -302 69 -452 38z m370 -796 c37 -141 49 -255 49 -453 0 -152
-3 -193 -21 -267 -45 -176 -110 -296 -217 -395 -179 -168 -439 -218 -739 -143
-106 27 -265 106 -347 173 -53 44 -69 52 -90 46 -55 -15 -178 -9 -234 11 -235
88 -326 400 -167 572 41 43 55 51 121 68 41 11 123 27 182 36 96 14 110 14
135 0 77 -42 72 -41 108 -21 19 10 58 45 87 79 153 179 316 326 390 352 25 8
130 21 257 30 200 14 367 40 409 63 23 13 45 -30 77 -151z m-1220 -1498 c251
-29 532 -118 720 -227 85 -49 164 -104 165 -114 0 -12 -134 -77 -200 -97 -243
-74 -486 9 -706 241 -67 69 -164 189 -164 201 0 9 85 7 185 -4z m-281 -46
c111 -176 311 -366 471 -447 150 -75 331 -97 485 -58 81 20 179 62 263 113
l38 23 51 -54 c240 -260 361 -618 360 -1076 0 -333 -58 -669 -178 -1033 -25
-75 -53 -174 -62 -220 l-17 -83 -100 82 c-133 109 -349 328 -459 464 -71 89
-241 333 -291 420 -9 15 -25 0 -110 -106 -226 -281 -411 -485 -792 -870 -183
-184 -333 -338 -333 -341 0 -9 348 -503 438 -621 130 -172 222 -278 371 -428
215 -215 411 -364 681 -518 l120 -68 -82 -7 c-436 -33 -1733 -43 -2363 -18
-413 16 -714 31 -801 38 l-70 5 33 187 c201 1123 530 2600 683 3065 234 715
593 1201 1061 1441 164 84 398 153 529 155 43 1 46 -1 74 -45z m3256 -1884
c223 -37 350 -94 440 -198 46 -54 123 -201 200 -381 63 -149 77 -234 41 -270
-13 -13 -34 -21 -55 -21 l-34 0 -85 173 c-93 188 -196 365 -220 378 -23 13
-47 0 -47 -25 0 -11 28 -66 61 -121 63 -105 214 -406 244 -488 11 -28 14 -51
9 -56 -5 -5 -62 -10 -127 -12 l-118 -4 -49 114 c-121 279 -219 468 -276 531
-46 51 -118 89 -141 74 -33 -21 -26 -41 29 -77 71 -48 109 -99 178 -242 63
-131 168 -366 172 -387 4 -19 -38 -22 -119 -8 -66 12 -72 15 -78 40 -3 15 -19
48 -35 73 -36 57 -102 96 -230 137 -111 35 -149 62 -229 160 -94 115 -238 223
-270 203 -36 -23 -24 -47 47 -96 73 -50 154 -131 212 -212 47 -67 83 -88 187
-114 114 -27 189 -65 214 -105 10 -17 19 -36 19 -42 0 -7 -45 -13 -127 -17
-71 -3 -194 -13 -275 -22 -252 -29 -368 3 -501 137 -72 73 -109 86 -115 42 -4
-25 89 -131 145 -165 l35 -22 -30 -13 c-37 -15 -52 -41 -52 -88 0 -33 -4 -38
-49 -61 -27 -13 -80 -47 -117 -75 l-67 -52 -45 18 c-76 29 -261 127 -374 198
-102 64 -108 69 -108 101 0 51 27 167 61 267 18 50 48 150 68 222 l36 131 75
37 c190 95 541 235 721 287 286 83 498 96 779 51z m2327 -155 c53 -37 72 -189
48 -395 -16 -132 -16 -174 -6 -338 14 -235 14 -487 0 -587 -41 -300 -172 -515
-390 -646 -37 -22 -140 -71 -230 -108 -90 -38 -308 -135 -484 -216 -677 -311
-1009 -442 -1398 -549 -363 -101 -625 -140 -952 -140 -398 0 -670 59 -1049
230 -508 229 -909 561 -1290 1069 -96 128 -366 512 -366 520 0 3 111 117 248
253 273 273 511 531 695 752 66 80 123 147 125 150 2 3 12 -6 21 -20 343 -518
772 -908 1266 -1151 202 -99 362 -156 552 -196 113 -24 150 -27 318 -27 212 0
210 -1 490 84 207 63 530 146 765 196 l175 38 470 3 c259 1 480 2 493 3 13 0
34 12 47 26 21 22 25 37 25 84 0 44 13 94 61 226 33 93 64 173 69 178 16 16
59 -4 76 -36 24 -47 20 -107 -19 -269 -87 -359 -135 -425 -402 -554 -164 -80
-331 -143 -542 -206 -76 -22 -144 -42 -150 -44 -18 -6 -16 -54 2 -61 37 -14
401 103 618 199 376 166 443 246 548 647 56 214 37 344 -57 397 -25 15 -38 28
-36 39 8 38 145 410 156 421 11 12 66 43 76 43 3 0 15 -7 27 -15z m245 -679
c75 -90 110 -171 116 -269 9 -155 -48 -304 -191 -500 -27 -37 -51 -67 -52 -65
-2 2 2 27 8 57 7 39 24 72 56 115 79 105 95 153 96 286 0 109 -2 119 -32 182
-37 78 -81 140 -94 132 -5 -3 -9 31 -9 76 l0 80 25 -16 c14 -9 49 -44 77 -78z
m-47 -270 c26 -88 13 -224 -27 -279 -11 -14 -13 16 -13 173 0 159 2 188 13
173 7 -10 19 -40 27 -67z m-2167 -131 c-3 -3 -88 -27 -189 -54 -101 -28 -242
-68 -314 -90 -185 -56 -200 -60 -309 -71 -155 -16 -382 12 -574 72 -61 19 -63
20 -47 38 18 20 142 88 184 100 28 9 1258 13 1249 5z m267 -2305 c146 -72 345
-189 442 -262 437 -327 640 -674 715 -1228 19 -139 16 -691 -5 -955 -27 -333
-55 -697 -68 -865 -6 -85 -13 -379 -16 -652 -3 -274 -7 -498 -9 -498 -2 0
-144 -16 -316 -35 -342 -37 -717 -73 -1098 -105 -285 -23 -813 -60 -816 -57
-1 1 -7 99 -13 217 -12 218 -31 479 -75 1055 -34 431 -46 648 -46 830 0 140
13 336 26 377 4 13 -14 29 -65 64 -39 26 -71 51 -71 57 0 6 279 488 621 1073
l621 1063 27 -10 c14 -6 80 -37 146 -69z m-2537 -528 c25 -32 14 -60 -40 -100
-120 -87 -305 -183 -435 -224 -72 -23 -72 -23 -78 -63 -8 -60 -25 -406 -25
-519 0 -108 -11 -136 -56 -136 -48 0 -54 19 -54 187 0 155 15 454 28 547 l7
50 90 26 c161 48 256 93 410 194 103 67 125 73 153 38z m-2973 -2787 c613
-112 1461 -262 1640 -291 61 -9 111 -18 113 -19 5 -4 -55 -206 -114 -381 -278
-836 -703 -1682 -1534 -3054 -91 -151 -192 -321 -224 -377 -32 -57 -61 -103
-66 -103 -10 0 -318 140 -645 294 -382 180 -1356 668 -1362 682 -2 6 88 178
200 380 663 1195 978 1790 1066 2010 91 230 165 491 226 797 19 97 35 179 35
181 0 2 21 -1 48 -6 26 -5 304 -55 617 -113z m6589 -1377 c7 -131 44 -476 52
-489 2 -4 0 -10 -5 -14 -38 -23 -1639 -173 -2157 -201 l-122 -7 -7 312 c-4
171 -8 314 -9 318 0 5 112 16 249 25 553 39 1432 118 1790 162 61 7 131 14
156 15 l46 1 7 -122z m-8314 -2232 c543 -273 790 -392 1215 -588 143 -65 263
-122 267 -126 4 -4 -33 -86 -82 -182 -48 -96 -107 -220 -130 -275 -23 -55 -46
-103 -49 -108 -8 -8 -321 132 -756 339 -228 108 -1263 622 -1293 642 -9 6 23
72 129 263 164 295 168 301 177 297 4 -2 239 -120 522 -262z"/>
<path d="M7787 17076 c-3 -8 3 -56 14 -108 12 -54 23 -153 26 -235 6 -152 13
-171 54 -158 22 7 22 9 16 164 -6 141 -30 306 -51 339 -10 17 -53 15 -59 -2z"/>
<path d="M7412 17034 c-16 -11 -22 -25 -22 -54 0 -29 6 -43 22 -54 51 -36 108
-7 108 54 0 42 -26 70 -65 70 -11 0 -31 -7 -43 -16z"/>
<path d="M6383 16789 c-43 -10 -58 -29 -47 -61 5 -18 11 -19 52 -12 123 22
215 -7 292 -93 38 -44 52 -54 69 -48 59 18 -29 140 -137 188 -65 30 -166 41
-229 26z"/>
<path d="M6737 14692 c-10 -10 -17 -26 -17 -36 0 -45 253 -627 287 -662 28
-27 93 -4 93 33 0 5 -33 79 -74 164 -40 85 -104 231 -141 324 -37 94 -72 176
-78 183 -14 18 -51 15 -70 -6z"/>
<path d="M5346 13414 c-9 -8 -16 -22 -16 -30 0 -27 423 -764 443 -770 10 -3
29 2 43 11 20 13 25 23 22 44 -4 28 -403 741 -422 753 -19 13 -54 9 -70 -8z"/>
<path d="M11106 8984 c-22 -21 -15 -57 25 -141 47 -98 157 -184 254 -200 26
-4 40 -2 46 8 19 30 9 47 -37 63 -117 40 -184 105 -221 215 -23 69 -40 83 -67
55z"/>
<path d="M6043 6228 c-25 -31 -52 -98 -63 -156 -27 -136 22 -322 84 -322 36 0
37 21 8 91 -22 53 -27 79 -27 149 1 72 5 95 30 149 22 47 26 67 18 80 -13 21
-37 25 -50 9z"/>
<path d="M11048 15075 c-7 -16 -8 -32 -2 -44 5 -11 128 -155 274 -320 217
-247 269 -301 290 -301 33 0 50 17 50 51 0 20 -37 69 -157 205 -369 420 -382
434 -414 434 -22 0 -32 -7 -41 -25z"/>
<path d="M10520 14489 c-28 -51 -21 -56 368 -242 203 -97 376 -177 384 -177
37 0 63 65 34 89 -33 27 -722 351 -747 351 -18 0 -32 -7 -39 -21z"/>
<path d="M15149 13034 c-163 -29 -397 -120 -385 -149 3 -8 252 -398 553 -867
l547 -851 59 64 c141 156 291 423 344 614 25 90 28 116 28 265 0 142 -3 176
-23 243 -44 154 -125 288 -251 419 -133 139 -287 226 -463 262 -95 20 -302 20
-409 0z m398 -104 c164 -39 288 -113 412 -246 292 -313 318 -709 74 -1123 -51
-87 -141 -211 -153 -211 -8 0 -974 1500 -969 1504 13 12 168 61 239 76 119 26
290 26 397 0z"/>
<path d="M14951 11975 c-67 -19 -104 -42 -158 -97 -66 -68 -88 -126 -88 -233
0 -110 21 -162 95 -235 65 -66 124 -92 220 -98 60 -3 87 0 132 17 199 76 282
297 181 483 -72 132 -238 203 -382 163z"/>
<path d="M16270 9715 l0 -495 24 -11 c17 -8 29 -8 45 0 21 12 21 13 21 456 l0
445 608 0 c577 0 610 1 625 18 20 22 22 53 5 70 -9 9 -172 12 -670 12 l-658 0
0 -495z"/>
<path d="M19052 10198 c-18 -18 -15 -53 6 -71 16 -15 54 -17 326 -17 193 0
315 4 327 10 22 12 26 59 7 78 -9 9 -97 12 -333 12 -236 0 -324 -3 -333 -12z"/>
<path d="M1577 9532 c-34 -38 -22 -57 116 -180 332 -299 336 -302 371 -266 36
35 21 58 -116 182 -256 229 -318 282 -337 282 -10 0 -25 -8 -34 -18z"/>
<path d="M16281 8827 c-8 -10 -12 -291 -13 -998 l-3 -984 -299 -3 c-201 -1
-304 -6 -313 -13 -20 -17 -16 -67 6 -79 13 -6 141 -10 349 -10 270 0 332 3
341 14 16 19 16 2053 0 2073 -15 17 -53 17 -68 0z"/>
<path d="M12022 8284 c-12 -8 -22 -24 -22 -35 0 -11 43 -114 95 -229 52 -115
95 -213 95 -218 0 -5 -91 -50 -202 -101 -112 -51 -213 -99 -225 -107 -45 -29
-12 -104 40 -91 12 4 112 47 221 97 109 50 202 92 208 93 5 1 54 -95 109 -213
54 -118 107 -221 117 -228 25 -16 68 -1 77 27 4 13 -27 91 -96 243 -56 122
-97 224 -93 225 5 2 106 47 224 101 l215 98 3 37 c3 31 -1 39 -22 49 -23 10
-48 1 -244 -87 -119 -54 -220 -100 -223 -101 -3 -2 -50 95 -103 214 -113 250
-123 262 -174 226z"/>
<path d="M346 6743 c-287 -236 -336 -280 -336 -303 0 -14 5 -31 12 -38 33 -33
60 -15 398 263 345 283 362 301 329 341 -31 38 -57 21 -403 -263z"/>
<path d="M7340 4390 c-53 -53 -27 -69 298 -186 318 -114 349 -120 366 -71 8
22 6 31 -9 46 -18 17 -594 231 -623 231 -7 0 -21 -9 -32 -20z"/>
<path d="M7269 4019 c-19 -19 -19 -51 1 -72 6 -7 362 -104 520 -141 74 -18
100 -8 100 37 0 19 -6 39 -12 44 -12 9 -556 153 -578 153 -5 0 -19 -9 -31 -21z"/>
<path d="M7853 2992 c-93 -378 -169 -688 -169 -689 2 -3 1260 457 1265 463 5
5 -811 813 -890 882 l-35 31 -171 -687z"/>
<path d="M11421 2435 c-629 -347 -1143 -635 -1142 -640 0 -6 515 -366 1143
-801 l1143 -791 3 719 c1 396 1 1040 0 1431 l-3 712 -1144 -630z"/>
<path d="M810 834 c-146 -85 -264 -159 -262 -165 1 -6 71 -130 155 -275 106
-184 156 -262 166 -259 7 3 132 74 277 157 l263 152 -32 56 c-189 331 -284
490 -292 489 -5 0 -129 -70 -275 -155z m354 -177 c53 -92 96 -169 96 -171 0
-6 -348 -206 -358 -206 -17 0 -215 351 -204 362 5 5 85 53 178 107 125 73 172
95 180 87 6 -6 55 -86 108 -179z"/>
</g>
</svg>
