<?xml version="1.0" standalone="no"?>
<!DOCTYPE svg PUBLIC "-//W3C//DTD SVG 20010904//EN"
 "http://www.w3.org/TR/2001/REC-SVG-20010904/DTD/svg10.dtd">
<svg version="1.0" xmlns="http://www.w3.org/2000/svg"
 width="1973.000000pt" height="1853.000000pt" viewBox="0 0 1973.000000 1853.000000"
 preserveAspectRatio="xMidYMid meet">

<g transform="translate(0.000000,1853.000000) scale(0.100000,-0.100000)"
fill="#5D64F6" stroke="none">
<path d="M7192 18508 c-34 -34 -16 -58 215 -290 l228 -228 -228 -228 c-151
-151 -227 -234 -227 -248 0 -25 29 -54 55 -54 11 0 112 93 247 227 l228 227
228 -227 c148 -148 235 -227 248 -227 25 0 54 30 54 56 0 11 -89 108 -227 246
l-228 228 228 228 c231 232 249 256 215 290 -34 34 -58 17 -290 -215 l-228
-228 -228 228 c-232 232 -256 249 -290 215z"/>
<path d="M11854 17959 c-90 -15 -207 -57 -289 -105 -76 -43 -85 -46 -165 -49
-118 -4 -208 -27 -325 -84 -127 -63 -203 -129 -246 -216 -28 -57 -31 -72 -26
-121 13 -124 122 -233 280 -279 l57 -16 0 -69 c0 -140 61 -375 149 -581 110
-253 259 -428 451 -528 111 -58 212 -83 341 -85 103 -1 108 -2 128 -28 12 -14
21 -30 21 -35 0 -4 -37 -28 -82 -53 -190 -104 -405 -299 -524 -475 -199 -294
-315 -622 -484 -1360 -141 -618 -223 -839 -366 -994 -106 -115 -202 -151 -399
-151 -227 0 -457 80 -665 229 -138 100 -145 108 -183 206 -115 300 -260 496
-429 580 -66 32 -91 38 -253 58 l-180 23 -130 180 c-147 202 -175 226 -244
205 -20 -6 -47 -21 -58 -33 -12 -13 -85 -174 -164 -358 -157 -370 -168 -410
-135 -506 9 -26 16 -48 16 -49 0 -1 -24 0 -53 3 -118 10 -190 -41 -202 -143
-14 -108 40 -189 170 -257 61 -32 188 -76 265 -92 24 -5 25 -9 25 -69 0 -63 2
-67 61 -153 34 -49 92 -143 129 -209 89 -158 119 -198 164 -224 53 -29 104
-27 178 9 l63 29 70 -98 c45 -63 70 -108 70 -125 0 -21 29 -57 131 -161 217
-222 413 -367 664 -490 266 -131 456 -178 720 -179 88 -1 185 2 215 6 47 7 29
-2 -125 -65 -340 -138 -573 -249 -825 -392 -80 -45 -237 -127 -350 -182 -341
-165 -542 -298 -734 -483 -322 -311 -481 -659 -527 -1152 -20 -222 -6 -716 34
-1228 60 -743 62 -793 61 -1320 -1 -760 -41 -1146 -155 -1475 -22 -64 -37
-119 -35 -124 3 -4 99 -79 215 -166 165 -124 211 -164 211 -182 0 -12 -8 -27
-18 -32 -15 -8 -57 19 -234 154 l-217 164 -25 -43 c-14 -24 -48 -68 -75 -98
l-49 -54 30 -39 c65 -86 148 -221 148 -242 0 -29 -32 -47 -52 -30 -8 7 -36 49
-63 94 -26 44 -64 100 -84 123 l-36 42 -75 -41 c-41 -22 -128 -60 -192 -85
-249 -96 -352 -170 -438 -316 -62 -106 -83 -185 -87 -335 l-3 -130 -37 0 -38
0 -3 1683 -2 1682 -1190 0 c-1166 0 -1190 0 -1200 -19 -14 -28 -13 -38 10 -61
20 -20 33 -20 1150 -20 l1130 0 0 -1669 c0 -1407 2 -1670 14 -1680 10 -9 443
-11 1685 -11 l1671 0 0 -1666 c0 -1129 3 -1672 10 -1685 12 -22 59 -26 78 -7
9 9 12 407 12 1729 l0 1716 160 5 c88 3 162 6 164 9 2 2 9 177 15 389 57 1948
62 2082 126 2890 19 239 40 514 46 610 13 207 16 617 5 712 l-7 67 41 27 c24
16 44 23 49 18 8 -9 253 -433 312 -539 18 -33 34 -62 35 -63 4 -5 184 124 301
214 219 171 563 470 795 691 53 51 98 93 100 93 2 0 1 -187 -1 -415 -4 -531
13 -824 70 -1162 19 -115 72 -349 80 -357 6 -5 212 20 352 42 l117 19 20 -71
c53 -187 190 -583 269 -781 121 -302 202 -482 367 -815 248 -502 473 -904 934
-1675 158 -264 332 -559 385 -655 219 -390 366 -744 415 -998 10 -52 20 -95
22 -97 1 -2 116 -15 253 -29 138 -15 260 -29 272 -31 27 -6 40 -42 21 -61 -12
-12 -47 -10 -243 11 -127 13 -246 27 -266 30 l-36 5 -6 -98 c-4 -53 -9 -109
-12 -123 -6 -25 -3 -28 72 -58 43 -17 111 -49 151 -72 74 -41 88 -63 56 -90
-13 -10 -31 -4 -118 39 -57 29 -123 59 -147 67 -41 15 -45 15 -54 -1 -46 -77
-115 -177 -184 -265 -88 -111 -143 -211 -166 -299 -19 -73 -19 -240 0 -315 32
-122 129 -292 163 -282 13 3 3066 1839 3080 1852 2 1 -84 157 -191 346 -1061
1880 -2002 3603 -2126 3889 -199 462 -327 1087 -395 1920 -32 393 -50 752 -71
1455 -8 275 -20 615 -27 755 -7 140 -13 302 -13 360 0 103 1 107 41 190 23 47
44 94 47 105 3 11 26 79 52 150 366 1021 315 2054 -148 3005 -91 186 -140 273
-252 445 -193 295 -445 595 -676 801 -60 54 -109 101 -109 104 0 4 19 12 43
19 76 23 206 93 271 147 35 29 85 83 111 119 81 113 87 139 111 460 4 48 2
104 -5 137 -16 74 -70 185 -127 259 l-46 60 -3 117 c-3 132 -24 216 -80 317
-97 176 -249 268 -487 294 -53 6 -129 8 -170 5 l-74 -7 -43 56 c-75 98 -176
168 -306 213 -72 25 -94 28 -210 28 -114 0 -139 -3 -205 -26 l-75 -26 -60 33
c-65 35 -179 75 -289 100 -44 10 -88 29 -125 54 -212 144 -491 210 -727 170z
m239 -729 c54 -17 168 -63 253 -101 162 -72 203 -81 230 -50 61 71 73 80 154
105 99 32 220 50 269 41 82 -15 163 -81 206 -165 73 -146 51 -309 -60 -428
-57 -62 -111 -94 -193 -115 -51 -13 -54 -15 -97 -91 -101 -178 -223 -296 -405
-394 -361 -194 -720 -101 -957 248 -68 101 -154 303 -203 476 -30 108 -58 289
-48 316 4 10 27 17 75 21 89 8 187 35 353 97 243 92 257 93 423 40z m988
-1407 c-25 -47 -177 -217 -240 -269 -159 -131 -290 -186 -446 -186 -49 1 -117
8 -150 16 -65 17 -225 93 -225 107 0 14 139 103 237 152 214 108 544 193 756
196 71 1 77 0 68 -16z m389 -29 c190 -47 325 -110 545 -256 191 -126 278 -200
491 -412 203 -204 348 -376 492 -589 95 -142 177 -276 171 -281 -2 -2 -105
-65 -229 -141 -124 -76 -409 -253 -635 -395 -225 -141 -415 -260 -421 -263 -7
-4 -29 40 -59 116 -61 156 -193 426 -285 587 -86 148 -230 370 -253 388 -26
22 -70 11 -81 -20 -9 -24 -2 -39 59 -130 240 -361 417 -718 533 -1078 98 -303
115 -499 81 -915 -33 -402 -145 -936 -291 -1394 l-30 -94 -351 7 c-684 13
-1160 44 -1552 102 -60 9 -113 19 -117 23 -4 3 9 62 28 131 51 184 119 500
153 705 55 326 65 448 65 735 0 314 -9 383 -85 618 -299 925 -235 1688 179
2124 l54 57 60 -39 c130 -85 289 -126 443 -117 255 15 489 169 709 467 38 52
74 98 78 101 13 9 133 -9 248 -37z m-2059 -1450 c-6 -314 43 -659 145 -1014 7
-22 1 -19 -52 23 -88 72 -267 210 -293 228 l-24 15 42 185 c64 277 178 729
185 729 1 0 -1 -75 -3 -166z m3884 -318 c192 -405 302 -780 357 -1226 17 -138
17 -620 0 -760 -82 -667 -311 -1296 -703 -1925 l-72 -115 -41 23 c-23 13 -306
178 -631 367 -324 189 -591 344 -592 345 -1 0 25 83 58 184 195 599 312 1216
326 1726 6 242 -7 373 -58 575 -17 67 -27 126 -22 130 8 7 1004 629 1198 748
55 34 104 62 108 62 5 0 37 -60 72 -134z m-6464 -327 c117 -15 168 -27 214
-48 150 -70 284 -256 389 -541 31 -83 42 -101 88 -143 127 -116 342 -239 508
-292 232 -72 511 -70 663 6 187 94 327 317 432 689 15 52 30 99 34 103 14 14
465 -347 475 -381 18 -59 37 -181 47 -304 17 -217 -9 -551 -70 -903 l-18 -109
-109 -106 c-256 -251 -520 -389 -849 -446 -124 -22 -394 -14 -518 15 -350 81
-666 264 -974 565 l-133 129 34 31 c29 26 60 90 177 366 131 308 143 341 146
405 2 49 -2 84 -14 117 -10 26 -99 173 -198 327 l-180 279 -75 7 c-151 14
-296 67 -341 123 -26 34 -41 90 -28 113 13 26 100 25 300 -2z m-382 -137 c25
-49 78 -96 147 -130 l54 -26 -28 -18 c-58 -38 -148 -32 -207 14 -75 59 -87
187 -22 256 l22 24 7 -40 c4 -22 16 -58 27 -80z m-424 -423 c17 -8 63 -61 112
-129 118 -163 114 -151 40 -134 -174 40 -290 88 -345 145 -26 26 -32 41 -32
74 0 23 6 47 13 54 16 17 172 9 212 -10z m480 -350 c48 -13 91 -51 98 -87 3
-14 -1 -47 -7 -73 -7 -27 -9 -52 -4 -57 13 -13 -61 -93 -106 -113 -59 -27 -70
-24 -96 23 -13 23 -48 77 -77 121 -33 47 -53 87 -51 99 4 28 44 56 109 79 63
22 80 23 134 8z m206 -280 c43 -34 69 -75 69 -109 0 -57 -74 -145 -150 -179
-38 -17 -48 -18 -65 -7 -21 13 -105 131 -105 147 0 4 23 18 50 30 47 20 150
116 150 140 0 15 10 11 51 -22z m2820 -1022 c-10 -43 -20 -79 -22 -81 -7 -6
-313 -106 -315 -103 -2 1 43 33 99 70 56 37 136 96 177 131 41 35 76 63 77 62
1 -1 -6 -37 -16 -79z m-1451 -2042 c315 -539 594 -1017 621 -1062 l48 -83 -73
-49 -74 -50 10 -43 c4 -24 11 -144 15 -268 6 -249 -3 -439 -47 -1000 -38 -479
-57 -741 -70 -985 -7 -110 -13 -201 -14 -202 -3 -4 -630 42 -936 68 -280 23
-976 92 -1155 114 -66 8 -126 15 -134 15 -12 0 -13 30 -8 197 10 368 -10 850
-68 1572 -51 645 -56 951 -19 1231 89 689 447 1127 1219 1492 55 26 103 44
106 40 4 -4 265 -448 579 -987z m1916 362 c152 -103 304 -175 451 -213 l71
-18 6 -60 c16 -153 25 -336 26 -508 0 -157 -3 -189 -16 -202 -21 -22 -50 -20
-74 4 -18 18 -20 33 -20 139 0 124 -16 454 -25 506 -5 28 -11 32 -78 53 -154
50 -451 214 -478 264 -20 37 7 83 52 87 4 1 42 -23 85 -52z m3539 -2813 c64
-324 137 -580 232 -814 96 -239 449 -903 1161 -2184 l111 -200 -182 -94 c-477
-248 -1797 -882 -1835 -882 -5 0 -28 35 -52 78 -24 42 -164 277 -310 522 -776
1294 -1167 2071 -1435 2850 -57 166 -148 462 -143 465 2 1 118 21 258 44 322
54 1175 207 1730 309 234 43 426 78 428 76 2 -1 18 -78 37 -170z m-6625 -1268
c395 -40 828 -77 1275 -109 l310 -22 -2 -50 c0 -28 -4 -170 -8 -317 l-7 -268
-42 0 c-98 0 -864 61 -1336 105 -332 32 -892 94 -898 100 -3 2 3 64 11 137 22
180 37 350 37 424 0 33 2 63 5 65 2 3 73 -3 157 -13 84 -10 308 -33 498 -52z
m8335 -2297 c83 -148 151 -274 153 -279 4 -10 -916 -472 -1323 -664 -431 -205
-728 -337 -734 -329 -4 4 -22 44 -41 88 -18 44 -77 169 -131 278 l-99 198 68
31 c430 194 1233 581 1672 807 151 77 277 141 280 140 3 0 73 -121 155 -270z"/>
<path d="M12933 17069 c-105 -41 -198 -155 -210 -258 -5 -43 -3 -52 12 -57 28
-11 47 8 59 57 30 115 109 183 249 214 24 5 28 10 25 33 -3 24 -8 27 -43 29
-22 1 -63 -7 -92 -18z"/>
<path d="M11912 16900 c-12 -5 -27 -21 -32 -36 -19 -50 11 -94 64 -94 40 0 66
26 66 66 0 35 -8 47 -37 63 -25 13 -30 13 -61 1z"/>
<path d="M11563 16793 c-36 -14 19 -254 98 -431 31 -68 52 -84 77 -58 15 15
15 20 -2 64 -54 138 -80 217 -101 309 -29 129 -32 133 -72 116z"/>
<path d="M8613 8992 c-6 -4 -14 -24 -18 -44 -18 -93 -116 -199 -212 -229 -54
-17 -73 -40 -54 -63 18 -21 39 -20 106 5 102 38 211 166 230 272 10 51 -16 82
-52 59z"/>
<path d="M13672 6228 c-15 -15 -16 -45 -2 -53 5 -3 19 -38 31 -76 28 -92 23
-182 -14 -263 -30 -65 -27 -86 13 -86 23 0 31 7 48 48 48 113 55 217 22 325
-30 96 -67 136 -98 105z"/>
<path d="M9138 17369 c-25 -14 -155 -190 -216 -291 -114 -188 -222 -448 -267
-640 -18 -75 -18 -78 0 -98 22 -24 48 -26 66 -4 7 9 28 67 46 130 82 287 219
559 389 771 56 71 65 101 38 127 -18 18 -32 20 -56 5z"/>
<path d="M9744 16963 c-29 -30 -119 -173 -162 -258 -282 -565 -182 -1276 248
-1770 66 -75 100 -96 129 -78 34 21 25 62 -26 116 -343 365 -489 917 -368
1392 44 175 131 365 226 492 40 53 49 89 27 111 -17 17 -54 15 -74 -5z"/>
<path d="M10257 16648 c-46 -59 -101 -152 -127 -217 -19 -50 -20 -55 -5 -78
12 -17 24 -23 43 -21 22 3 33 17 72 93 25 50 64 117 88 151 30 43 41 66 36 80
-19 49 -63 46 -107 -8z"/>
<path d="M10076 16218 c-21 -34 -28 -161 -16 -272 28 -247 126 -452 300 -627
92 -93 165 -146 277 -203 144 -72 361 -117 396 -82 41 41 5 80 -82 90 -141 16
-311 90 -439 192 -240 189 -379 506 -356 808 5 63 4 90 -6 101 -19 22 -57 19
-74 -7z"/>
<path d="M8606 16118 c-31 -44 -17 -515 15 -555 16 -19 53 -16 73 5 14 17 15
28 5 93 -6 41 -11 160 -11 264 0 116 -4 195 -10 203 -16 19 -55 14 -72 -10z"/>
<path d="M8662 15448 c-17 -17 -15 -51 8 -133 96 -341 308 -686 591 -960 364
-352 815 -570 1316 -636 74 -10 95 -10 107 1 19 15 21 64 4 77 -7 6 -58 16
-112 23 -369 45 -774 219 -1089 467 -99 78 -291 272 -364 368 -150 198 -274
431 -338 635 -20 63 -42 126 -49 140 -13 28 -54 38 -74 18z"/>
<path d="M10238 14679 c-11 -6 -18 -22 -18 -40 0 -24 8 -35 46 -59 149 -94
555 -216 599 -180 18 15 20 64 3 77 -7 5 -62 20 -123 32 -127 26 -264 75 -386
137 -92 48 -95 48 -121 33z"/>
<path d="M4280 13050 c-323 -29 -601 -230 -755 -545 -114 -232 -117 -514 -9
-788 67 -170 188 -364 310 -495 l49 -54 554 862 c358 557 550 865 544 871 -6
6 -52 28 -102 50 -105 45 -255 85 -351 94 -131 12 -157 12 -240 5z m292 -115
c92 -19 260 -75 256 -84 -10 -24 -964 -1501 -970 -1501 -13 0 -127 165 -177
255 -154 280 -183 564 -81 809 105 253 327 449 580 515 95 25 286 28 392 6z"/>
<path d="M4610 11977 c-91 -26 -182 -106 -223 -195 -32 -71 -30 -198 4 -272
34 -72 97 -135 167 -168 48 -23 71 -27 142 -27 71 0 94 4 141 26 72 34 134 96
168 168 35 75 37 201 4 273 -30 65 -105 143 -168 173 -63 31 -168 41 -235 22z"/>
<path d="M10 10185 c-11 -30 -4 -52 21 -65 10 -6 144 -10 321 -10 328 0 348 3
348 54 0 45 -5 46 -352 46 l-328 0 -10 -25z"/>
<path d="M2142 10198 c-14 -14 -15 -47 -2 -68 8 -13 90 -15 620 -18 l610 -2 0
-431 c0 -277 4 -437 10 -450 12 -22 59 -26 78 -7 9 9 12 134 12 500 l0 488
-658 0 c-498 0 -661 -3 -670 -12z"/>
<path d="M17885 9354 c-175 -156 -221 -202 -223 -224 -3 -31 20 -60 47 -60 26
0 460 388 467 417 8 29 -20 63 -50 63 -13 0 -106 -76 -241 -196z"/>
<path d="M3386 8818 c-14 -20 -16 -134 -16 -1030 0 -995 0 -1008 20 -1028 19
-19 33 -20 343 -20 276 0 326 2 345 16 24 17 29 56 9 73 -9 7 -112 12 -313 13
l-299 3 -3 984 c-1 707 -5 988 -13 998 -17 20 -56 16 -73 -9z"/>
<path d="M7658 8288 c-9 -7 -60 -109 -114 -225 -53 -117 -101 -213 -107 -213
-5 0 -104 43 -219 95 -115 52 -218 95 -228 95 -29 0 -53 -42 -41 -71 7 -19 55
-45 230 -124 122 -55 220 -102 219 -106 -2 -4 -48 -104 -102 -223 -88 -194
-98 -219 -87 -242 9 -21 17 -25 48 -22 l37 3 100 220 c55 121 101 221 101 223
1 1 102 -43 223 -99 232 -105 253 -110 274 -64 19 42 -3 59 -194 145 -101 46
-200 91 -220 101 l-37 19 100 216 c54 119 99 224 99 234 0 20 -30 50 -51 50
-9 0 -22 -6 -31 -12z"/>
<path d="M18996 7014 c-9 -8 -16 -28 -16 -43 0 -23 43 -62 322 -291 176 -146
331 -271 343 -279 50 -32 107 21 74 68 -16 22 -637 534 -668 550 -27 15 -37
14 -55 -5z"/>
<path d="M12110 4324 c-374 -135 -369 -133 -376 -159 -9 -35 12 -65 44 -65 33
0 614 208 624 224 12 17 9 61 -4 74 -7 7 -21 12 -32 11 -12 0 -127 -38 -256
-85z"/>
<path d="M12137 3966 c-162 -43 -274 -78 -284 -88 -27 -28 -7 -72 34 -76 36
-4 537 123 571 144 45 29 20 96 -35 93 -10 -1 -138 -34 -286 -73z"/>
<path d="M11245 3226 c-253 -250 -458 -456 -455 -459 3 -3 282 -106 620 -230
338 -124 622 -228 631 -232 13 -5 -21 146 -155 684 -94 380 -173 691 -176 690
-3 0 -212 -204 -465 -453z"/>
<path d="M7170 1638 c0 -857 4 -1428 9 -1426 30 11 2289 1584 2283 1590 -4 4
-482 269 -1062 589 -580 319 -1094 603 -1142 629 l-88 49 0 -1431z"/>
<path d="M18486 718 c-86 -149 -155 -272 -154 -273 2 -2 125 -73 273 -158 208
-121 273 -153 281 -144 7 7 79 130 162 274 l150 262 -269 155 c-147 86 -272
156 -277 156 -5 0 -80 -122 -166 -272z m372 35 c92 -53 173 -101 179 -107 10
-9 -10 -51 -89 -189 -56 -97 -106 -177 -111 -177 -11 0 -357 201 -357 208 0 6
204 362 208 362 1 0 78 -43 170 -97z"/>
</g>
</svg>
